<svg width="400" height="520" viewBox="0 0 400 520" fill="none" xmlns="http://www.w3.org/2000/svg">
  <g stroke="#9E9E9E" stroke-width="12" stroke-linecap="round">
    <path d="M200 60C110 60 50 120 50 200" />
    <path d="M200 40C90 40 30 110 30 210" />
    <path d="M200 80C130 80 80 130 80 190" />
    <path d="M100 240C100 320 150 420 200 460" />
    <path d="M70 260C70 350 130 460 200 490" />
    <path d="M300 100C350 150 370 220 370 300" />
    <path d="M330 130C360 170 370 230 350 320" />
    <path d="M250 80C300 80 340 120 350 180" />
    <path d="M150 480C180 500 220 500 250 480" />
    <path d="M120 450C160 480 240 480 280 450" />
  </g>
  
  <path d="M200 120L110 380H150L170 320H230L250 380H290L200 120ZM180 280L200 210L220 280H180Z" 
        fill="white" stroke="#9E9E9E" stroke-width="8" stroke-linejoin="round"/>
</svg>
