<svg version="1.1" id="Layer_1" xmlns="http://www.w3.org/2000/svg" xmlns:xlink="http://www.w3.org/1999/xlink" x="0px" y="0px"
	 width="100%" viewBox="0 0 809 181" enable-background="new 0 0 809 181" xml:space="preserve">
<path fill="#FEFEFE" opacity="1.000000" stroke="none" 
	d="
M544.000000,182.000000 
	C362.666687,182.000000 181.833374,182.000000 1.000049,182.000000 
	C1.000032,121.666695 1.000032,61.333389 1.000016,1.000065 
	C270.666595,1.000043 540.333191,1.000043 809.999878,1.000022 
	C809.999878,61.333267 809.999878,121.666534 809.999939,181.999908 
	C721.500000,182.000000 633.000000,182.000000 544.000000,182.000000 
M383.331635,108.726311 
	C387.965515,96.461945 388.437775,83.908401 384.680969,71.479340 
	C380.950562,59.137470 372.917999,50.117130 359.718079,48.488049 
	C348.548370,47.109528 337.120697,47.419086 325.821228,47.654900 
	C319.662079,47.783440 317.028351,51.152328 316.995911,57.522278 
	C316.892303,77.848442 316.888519,98.176018 317.016449,118.501976 
	C317.062561,125.831032 320.032013,128.748291 327.465668,128.894241 
	C336.291748,129.067551 345.133911,129.139893 353.952423,128.810104 
	C367.498657,128.303497 377.184448,121.657967 383.331635,108.726311 
M714.089844,114.034775 
	C702.174255,114.034775 690.258667,114.034775 678.529053,114.034775 
	C678.529053,106.830200 678.529053,100.434448 678.529053,93.807457 
	C683.246704,93.807457 687.574036,93.878418 691.898254,93.791283 
	C698.882385,93.650551 705.875488,93.579636 712.843018,93.136986 
	C716.757812,92.888275 718.816528,90.105545 718.795593,86.358009 
	C718.774536,82.579865 716.574097,80.134644 712.710693,79.628975 
	C710.410461,79.327904 708.071411,79.222610 705.748840,79.211006 
	C696.653198,79.165558 687.557129,79.192429 678.486389,79.192429 
	C678.486389,73.026352 678.486389,67.629997 678.486389,61.993984 
	C690.155457,61.993984 701.476318,62.078632 712.794922,61.959324 
	C718.715820,61.896912 721.829773,59.323582 721.959290,54.901081 
	C722.086914,50.543114 718.979187,47.477394 713.245728,47.394909 
	C698.918030,47.188789 684.580933,47.138081 670.255981,47.432125 
	C662.905640,47.583000 660.004761,50.808990 659.968201,58.087738 
	C659.866821,78.251541 659.864868,98.416588 659.975220,118.580307 
	C660.014526,125.764519 663.250488,128.897217 670.490051,128.947693 
	C684.987793,129.048782 699.487122,129.038971 713.984985,128.952560 
	C719.934937,128.917099 722.955078,126.489525 723.195374,122.019119 
	C723.450317,117.276260 721.207703,115.104843 714.089844,114.034775 
M232.750854,101.763603 
	C234.321091,118.895248 242.394272,127.636894 259.029053,129.766602 
	C263.292542,130.312424 267.673889,130.220474 271.986450,130.050064 
	C289.535980,129.356567 300.339203,119.061371 300.978851,101.622704 
	C301.533752,86.493584 301.244019,71.333359 301.311890,56.186810 
	C301.315613,55.358463 301.231720,54.519833 301.092438,53.702374 
	C300.310974,49.116356 297.104004,46.227943 292.626221,46.038418 
	C288.079651,45.845985 284.692169,48.319122 283.619781,52.961037 
	C283.140045,55.037666 283.069061,57.241230 283.058411,59.388412 
	C282.993225,72.539436 283.108704,85.692207 282.941620,98.841568 
	C282.830231,107.609940 279.608032,113.083038 273.214569,114.445839 
	C259.545776,117.359406 251.235062,113.109459 250.881668,98.670944 
	C250.832794,96.674179 250.805801,94.676384 250.804382,92.679039 
	C250.796829,82.024719 250.801575,71.370399 250.799240,60.716080 
	C250.798950,59.384426 250.843521,58.049004 250.762360,56.721748 
	C250.340271,49.818462 246.972198,45.972435 241.428452,46.011211 
	C236.123886,46.048313 232.496643,49.754513 232.424011,56.441704 
	C232.263153,71.248772 232.539825,86.060593 232.750854,101.763603 
M557.100220,78.373711 
	C553.768982,70.211937 550.690613,61.934704 547.031921,53.922447 
	C543.699463,46.624523 535.735779,43.452938 529.713501,47.496410 
	C526.409607,49.714684 523.773987,53.785164 522.205261,57.585274 
	C514.652893,75.880379 507.556244,94.363869 500.327850,112.792252 
	C499.479858,114.954163 498.578918,117.139984 498.116913,119.399445 
	C497.098877,124.378403 499.330170,128.424622 503.579529,129.834793 
	C508.223450,131.375916 511.853577,129.864502 514.113708,124.951530 
	C516.331299,120.131096 518.154602,115.129265 520.162964,110.177345 
	C530.421570,110.177345 540.552063,110.177345 550.721008,110.177345 
	C552.190979,113.863457 553.544067,117.441910 555.036316,120.961380 
	C558.633423,129.445053 562.411743,131.921600 568.130188,129.656448 
	C573.632263,127.476997 574.875305,122.387474 571.633057,114.240356 
	C566.958496,102.494072 562.140503,90.804909 557.100220,78.373711 
M192.444855,48.935947 
	C183.384659,43.052353 175.690201,45.769588 171.306671,56.742928 
	C163.472885,76.353317 155.823303,96.037453 148.153854,115.713036 
	C147.498917,117.393288 147.102463,119.219231 146.879105,121.013977 
	C146.317673,125.525124 148.714752,128.500092 152.678085,129.790207 
	C156.873322,131.155807 160.716721,130.151428 162.703964,125.700066 
	C164.532303,121.604622 166.320770,117.465378 167.708771,113.209099 
	C168.539948,110.660339 169.816742,109.920372 172.372208,109.966423 
	C180.366272,110.110489 188.367737,110.146286 196.359482,109.948029 
	C199.027771,109.881836 200.132355,110.917740 200.972183,113.244209 
	C202.381027,117.146858 203.956146,121.007271 205.741592,124.751801 
	C208.113556,129.726425 212.147644,131.456345 216.766281,129.809250 
	C221.073517,128.273209 223.187515,123.927887 221.990967,118.790909 
	C221.578568,117.020485 220.936874,115.289001 220.255539,113.597908 
	C212.612320,94.627365 204.984665,75.650230 197.225616,56.727039 
	C196.170090,54.152798 194.419373,51.863613 192.444855,48.935947 
M628.612122,65.038200 
	C623.974548,79.318283 619.336914,93.598373 614.441589,108.672096 
	C613.725769,106.895691 613.253357,105.883797 612.903381,104.831253 
	C607.145020,87.512672 601.547424,70.138641 595.576965,52.893677 
	C593.485596,46.853153 589.004150,44.778770 583.987671,46.502224 
	C579.021179,48.208496 576.760132,52.792828 578.878601,58.727257 
	C586.314880,79.557678 593.998413,100.300339 601.675903,121.043823 
	C603.745422,126.635345 607.430786,130.283951 613.910706,130.255676 
	C620.676453,130.226151 624.098389,126.108833 626.261963,120.433983 
	C628.750793,113.906128 631.125427,107.334778 633.552856,100.783485 
	C638.639160,87.056534 643.839111,73.370239 648.766602,59.586540 
	C651.127197,52.983395 649.118408,48.267494 643.775696,46.457497 
	C638.774719,44.763271 634.519592,47.451195 632.263123,53.850826 
	C631.046936,57.300026 629.991760,60.805984 628.612122,65.038200 
M446.519440,47.280064 
	C441.708221,47.491722 436.860657,47.412575 432.097473,48.008217 
	C428.371918,48.474098 426.329163,51.190552 426.200897,54.972668 
	C426.079437,58.555012 427.861359,61.087910 431.317352,62.046692 
	C433.371063,62.616444 435.572815,62.812382 437.715912,62.867294 
	C442.324432,62.985382 446.938080,62.903545 451.931793,62.903545 
	C451.931793,65.306679 451.931122,67.100571 451.931885,68.894463 
	C451.939026,85.878662 451.882843,102.863235 451.984802,119.846870 
	C452.026276,126.757896 455.446625,130.352005 461.358826,130.206161 
	C466.768555,130.072723 469.930725,126.627197 470.008759,120.158165 
	C470.155396,108.004570 470.072876,95.848183 470.081360,83.692955 
	C470.086090,76.920425 470.082214,70.147896 470.082214,62.842686 
	C476.086639,62.842686 481.558960,63.077003 487.002197,62.779171 
	C492.870392,62.458084 495.827087,59.743355 495.930786,55.334217 
	C496.038269,50.764229 493.390320,48.272133 487.458923,47.506329 
	C485.817261,47.294373 484.141357,47.291557 482.481018,47.289120 
	C470.825165,47.272015 459.169342,47.280132 446.519440,47.280064 
M738.191345,127.655022 
	C740.458801,128.101990 742.722656,128.912415 744.994385,128.935486 
	C757.486023,129.062347 769.979736,129.013336 782.472534,128.974747 
	C783.958130,128.970154 785.498047,128.857040 786.916992,128.455460 
	C790.473267,127.448921 792.776489,125.140846 792.690186,121.288315 
	C792.599426,117.242111 790.155945,114.829048 786.312744,114.102943 
	C784.046570,113.674805 781.670105,113.749626 779.342712,113.740288 
	C770.388428,113.704346 761.433899,113.725716 752.011353,113.725716 
	C752.011353,111.374580 752.012085,109.587158 752.011230,107.799736 
	C752.003052,90.642853 752.081421,73.485260 751.941467,56.329453 
	C751.888794,49.867794 748.208862,46.006939 742.797729,46.039284 
	C737.454773,46.071224 733.937622,49.639545 733.899170,55.928089 
	C733.769836,77.081070 733.736328,98.237152 734.031006,119.386971 
	C734.067505,122.008530 736.300232,124.599495 738.191345,127.655022 
M399.792145,94.499954 
	C399.836548,103.483582 399.623566,112.478203 400.006409,121.447380 
	C400.314972,128.677170 407.060364,132.499557 413.132385,129.257263 
	C417.210876,127.079437 417.995605,123.212852 417.998505,119.042908 
	C418.007446,106.231163 418.009399,93.419411 418.002838,80.607666 
	C417.998566,72.288574 418.202759,63.961006 417.893341,55.652885 
	C417.603394,47.868034 410.210846,43.173164 404.509430,47.393658 
	C402.038574,49.222725 400.163666,53.384266 400.028961,56.571316 
	C399.509552,68.862244 399.802155,81.187492 399.792145,94.499954 
M52.231049,71.117393 
	C56.007675,61.522705 63.377399,56.648674 73.357353,56.299473 
	C83.253792,55.953194 91.330330,62.449280 95.035988,72.485687 
	C96.070107,75.286476 97.184563,78.100693 98.677330,80.667282 
	C99.252869,81.656822 100.983223,81.974716 102.187416,82.598625 
	C102.500443,81.187813 103.395615,79.592430 103.017776,78.400650 
	C101.866425,74.769066 100.315720,71.252235 98.756882,67.763824 
	C92.872375,54.595310 78.347588,48.170483 64.689240,52.629395 
	C51.127850,57.056656 42.650364,71.297371 46.418659,85.085541 
	C52.864353,108.670296 67.539780,127.068237 85.127884,143.369080 
	C85.850426,144.038742 87.684593,143.508987 89.000854,143.538055 
	C88.779663,142.236847 88.975006,140.603348 88.254646,139.700348 
	C86.500946,137.502060 84.292534,135.671707 82.319832,133.642075 
	C69.666794,120.623802 59.111202,106.232666 52.888851,88.962395 
	C50.857597,83.324623 49.994026,77.703346 52.231049,71.117393 
M78.822647,26.549303 
	C100.550720,29.591488 115.329315,41.365479 123.223938,61.830830 
	C123.999550,63.841454 124.764610,65.936729 126.002144,67.656174 
	C126.667610,68.580772 128.327499,68.789658 129.538681,69.321487 
	C129.858429,68.025185 130.701340,66.584694 130.391846,65.461823 
	C129.691940,62.922462 128.375351,60.558929 127.393127,58.090637 
	C112.966721,21.837767 68.835464,9.491941 37.930408,33.130676 
	C29.557463,39.534996 23.365799,47.718178 19.607523,57.573078 
	C18.989523,59.193592 19.791328,61.355564 19.936956,63.267296 
	C21.353649,62.089073 22.902586,61.032303 24.137730,59.687355 
	C24.885710,58.872883 25.131300,57.604290 25.630371,56.552906 
	C35.199261,36.394390 55.712437,24.558163 78.822647,26.549303 
M73.062401,85.296516 
	C72.801826,84.683548 72.311211,84.066490 72.322037,83.458359 
	C72.361000,81.271278 72.569252,79.087204 72.713531,76.902000 
	C74.095581,78.440857 76.031189,79.752762 76.770187,81.555252 
	C81.703941,93.589188 88.662514,104.250351 97.903717,113.365158 
	C98.865723,114.314003 100.959007,114.115891 102.527405,114.449944 
	C102.215912,112.986214 102.392471,111.068123 101.517853,110.128654 
	C92.212326,100.133118 84.871361,88.995659 80.278709,76.044022 
	C78.884323,72.111748 75.434769,70.507195 71.381897,71.643417 
	C67.340759,72.776337 65.331978,75.799255 66.002953,80.017258 
	C66.389450,82.446953 67.253143,84.850861 68.222687,87.129982 
	C78.631783,111.598869 97.228142,129.045486 117.911171,144.635162 
	C118.882431,145.367249 120.810593,144.829803 122.293114,144.883591 
	C121.899422,143.484055 121.746376,141.943069 121.033859,140.730942 
	C120.490425,139.806488 119.217857,139.324173 118.303574,138.602203 
	C99.852165,124.032005 82.971298,108.117699 73.062401,85.296516 
M65.719276,36.954391 
	C78.625793,34.629673 90.032867,38.003384 100.389008,45.814030 
	C101.701759,46.804115 103.763443,46.801174 105.478157,47.258297 
	C104.849846,45.492577 104.753410,43.073544 103.511032,42.062096 
	C90.936508,31.824896 76.623840,28.562160 60.931042,32.749035 
	C33.420753,40.088837 15.685049,70.827766 31.433783,103.217010 
	C31.990328,104.361610 33.861782,104.866859 35.120399,105.670082 
	C35.405941,104.106621 36.098274,102.482277 35.875687,100.994858 
	C35.587132,99.066605 34.520908,97.264168 33.873302,95.378784 
	C24.620884,68.441986 37.443462,44.348965 65.719276,36.954391 
M115.080620,109.437798 
	C110.798775,104.786102 105.841301,100.581268 102.397934,95.375008 
	C97.573639,88.080864 93.586823,80.181084 89.773560,72.283592 
	C85.380058,63.184391 76.098297,58.926201 67.033806,62.486061 
	C58.273342,65.926514 53.498016,75.612045 56.616955,84.063332 
	C57.065033,85.277481 58.726318,86.043900 59.826149,87.017525 
	C60.393158,85.708267 61.025177,84.421295 61.486496,83.075798 
	C61.620216,82.685776 61.221310,82.135239 61.140045,81.646080 
	C59.980968,74.669556 63.557308,68.743340 70.015465,66.917961 
	C76.359909,65.124733 82.828110,68.338875 85.135483,74.969009 
	C92.528229,96.211769 108.083443,110.887192 124.822502,124.594635 
	C125.812256,125.405136 127.939262,124.826866 129.537048,124.894852 
	C129.044647,123.494606 128.949966,121.672722 127.990479,120.767654 
	C123.999519,117.003105 119.747963,113.514839 115.080620,109.437798 
M47.065544,147.427383 
	C48.174526,148.667007 49.153126,150.064957 50.422234,151.110153 
	C52.464558,152.792130 53.836697,157.750565 57.097912,154.793686 
	C60.342236,151.852127 55.762009,149.771011 54.101704,147.713684 
	C36.063747,125.362328 19.142776,102.572411 20.926119,71.559181 
	C20.986317,70.512291 19.479355,69.375275 18.702873,68.280273 
	C17.799204,69.285339 16.118134,70.290184 16.117846,71.295517 
	C16.115961,77.892761 15.437438,84.732582 16.909365,91.043152 
	C21.840961,112.186279 32.912567,130.286285 47.065544,147.427383 
M64.950851,46.093994 
	C65.162193,42.116341 62.715794,42.740406 60.324066,43.488632 
	C45.819626,48.026196 34.105484,65.187881 35.551048,80.315300 
	C37.107292,96.601036 45.184685,110.214912 54.013809,123.448914 
	C54.286396,123.857506 54.649529,124.427818 55.041122,124.492081 
	C56.096390,124.665253 57.350105,124.934418 58.209221,124.516388 
	C58.739128,124.258545 59.054371,122.701401 58.818340,121.924316 
	C58.444088,120.692169 57.443218,119.666672 56.853771,118.480995 
	C52.053112,108.824463 46.400036,99.475609 42.713486,89.408005 
	C36.920998,73.589325 44.129402,57.212883 58.863998,49.691223 
	C60.775814,48.715290 62.697815,47.759308 64.950851,46.093994 
M51.250599,14.627704 
	C49.553211,15.304979 47.657532,15.710791 46.228123,16.754929 
	C45.274574,17.451469 44.985218,19.057274 44.398605,20.256144 
	C45.676334,20.608868 46.945072,21.186577 48.234840,21.238138 
	C49.151020,21.274763 50.087643,20.579210 51.028606,20.248783 
	C74.138359,12.133643 95.189133,15.828210 114.127205,31.346626 
	C116.173637,33.023533 117.782921,35.256889 119.902504,36.813351 
	C121.283630,37.827545 123.221428,38.083691 124.909843,38.679424 
	C124.472252,36.864376 124.080048,35.036251 123.563644,33.243912 
	C123.441711,32.820717 122.908188,32.511513 122.553314,32.160690 
	C102.531685,12.367935 78.999031,6.463665 51.250599,14.627704 
M120.943138,86.521858 
	C116.862930,79.539978 112.186432,72.831795 108.829391,65.517975 
	C102.287262,51.264927 91.701424,42.964207 76.151360,41.273293 
	C74.530243,41.097015 72.708038,42.769978 70.979134,43.584942 
	C72.471748,44.484982 73.885117,45.981644 75.469337,46.192062 
	C90.072289,48.131618 99.752541,55.846867 104.734604,69.800316 
	C108.860748,81.356552 116.669189,90.444664 125.581917,98.594658 
	C126.456985,99.394836 128.422638,99.002388 129.882080,99.163506 
	C129.621323,97.736900 129.818039,95.934265 129.013092,94.954964 
	C126.699455,92.140198 123.980774,89.658363 120.943138,86.521858 
M103.907425,146.584045 
	C106.259659,148.430984 108.462891,150.533981 111.022964,152.023743 
	C112.438927,152.847748 114.452545,152.644699 116.196762,152.904602 
	C115.564445,151.297409 115.402618,149.084717 114.229668,148.173279 
	C94.783722,133.062881 76.974037,116.552338 65.807312,94.022064 
	C65.307877,93.014389 63.236984,92.785576 61.898056,92.193977 
	C61.694866,93.541397 60.983238,95.073853 61.392479,96.198395 
	C62.292973,98.672836 63.691521,100.980026 65.006020,103.287552 
	C74.709320,120.321121 88.446388,133.755142 103.907425,146.584045 
M65.447487,145.044495 
	C61.337902,140.249435 56.896729,135.694550 53.204708,130.597061 
	C48.828278,124.554626 45.185596,117.985016 41.001888,111.794617 
	C40.282707,110.730492 38.451344,110.418015 37.133739,109.758324 
	C36.953999,111.226349 36.470699,112.740730 36.685658,114.148491 
	C36.875065,115.388962 37.818806,116.524902 38.473473,117.682091 
	C49.870155,137.826767 65.699295,154.087479 83.410240,168.650787 
	C84.481224,169.531433 86.567253,169.177658 88.180969,169.398270 
	C87.573959,167.801910 87.398193,165.763458 86.289215,164.681732 
	C79.626610,158.182892 72.749718,151.903763 65.447487,145.044495 
M52.539677,167.921341 
	C53.839447,167.724274 55.139217,167.527206 56.438988,167.330154 
	C56.023136,166.034775 55.948418,164.451828 55.137314,163.489624 
	C48.816380,155.991119 41.836212,148.989029 36.081795,141.089096 
	C30.430059,133.330109 26.047359,124.653564 20.921457,116.496765 
	C20.220154,115.380783 18.441460,114.941849 17.161592,114.189445 
	C16.868649,115.638847 16.298508,117.102882 16.374001,118.532837 
	C16.430311,119.599480 17.316257,120.624519 17.840961,121.663933 
	C26.555618,138.927277 38.238953,153.974884 52.539677,167.921341 
M89.075363,160.436752 
	C90.624924,161.685959 92.023949,163.242325 93.767044,164.096634 
	C95.458168,164.925461 97.502609,165.033386 99.391884,165.457916 
	C98.626526,163.756302 98.279892,161.614731 97.028534,160.423767 
	C88.263206,152.081436 79.272568,143.976425 70.446053,135.697388 
	C68.277634,133.663467 66.556358,131.153976 64.396935,129.108673 
	C63.788898,128.532776 61.758865,128.381042 61.427952,128.821411 
	C60.803032,129.653061 60.443146,131.292969 60.864044,132.168823 
	C61.632648,133.768234 62.922207,135.187012 64.218170,136.451935 
	C72.287308,144.327789 80.418518,152.140045 89.075363,160.436752 
M535.114197,26.918198 
	C528.889099,27.931391 527.953369,33.693161 525.430237,37.936253 
	C524.605164,39.323826 524.713257,41.266346 524.394592,42.955067 
	C526.276001,43.212498 528.325195,44.083920 530.010437,43.623432 
	C538.284180,41.362667 543.498718,35.250381 548.031128,28.436569 
	C548.138062,28.275826 547.841064,27.846430 547.486511,26.853456 
	C543.827515,26.853456 539.911621,26.853456 535.114197,26.918198 
M118.753250,63.722389 
	C117.007919,60.146912 115.487534,56.430752 113.389381,53.075935 
	C112.699867,51.973446 110.513519,51.807102 109.011642,51.212677 
	C109.045876,52.678631 108.673920,54.309475 109.189651,55.579971 
	C110.809242,59.569813 112.466568,63.599758 114.655167,67.290466 
	C118.106400,73.110374 121.870132,78.761841 125.828156,84.249039 
	C126.551842,85.252335 128.831711,85.133141 130.393234,85.532104 
	C130.032928,83.950600 130.038239,82.151329 129.248581,80.825546 
	C125.952003,75.290756 122.416534,69.898239 118.753250,63.722389 
M113.862267,93.609642 
	C112.596611,92.073227 111.520462,90.304665 110.008293,89.070213 
	C108.680786,87.986519 106.864525,87.501534 105.264130,86.752113 
	C105.505577,88.606842 105.064995,91.090157 106.100166,92.213356 
	C112.386795,99.034523 118.934105,105.623985 125.605850,112.071999 
	C126.553696,112.988060 128.651627,112.714127 130.217255,112.990959 
	C129.793640,111.460693 129.833740,109.488266 128.867737,108.475151 
	C124.173790,103.552284 119.210335,98.886383 113.862267,93.609642 
M120.462769,134.045380 
	C120.852837,134.351837 121.205055,134.843079 121.639664,134.932098 
	C123.341988,135.280838 125.070320,135.502579 126.788994,135.771500 
	C126.042191,134.095200 125.712784,131.966110 124.473686,130.823822 
	C119.983147,126.684113 115.266342,122.773781 110.440788,119.026924 
	C109.463463,118.268066 107.640114,118.598785 106.206795,118.427193 
	C106.499237,119.840492 106.306221,121.770164 107.166756,122.579185 
	C111.254250,126.421921 115.628777,129.959351 120.462769,134.045380 
M25.892517,30.393082 
	C24.089788,32.339989 22.051142,34.127998 20.586525,36.302624 
	C19.882486,37.347961 20.262203,39.123207 20.151136,40.567917 
	C21.592064,40.228878 23.410221,40.331001 24.410025,39.476078 
	C29.301750,35.293213 34.055058,30.936817 38.658154,26.438007 
	C39.566761,25.549982 39.600147,23.766447 40.037167,22.395899 
	C38.568504,22.381594 36.701416,21.781818 35.704281,22.460398 
	C32.431057,24.687918 29.473673,27.379557 25.892517,30.393082 
M25.223089,143.079086 
	C23.720713,142.527618 22.218334,141.976151 20.715952,141.424698 
	C20.846777,143.054291 20.405750,145.077820 21.209154,146.244095 
	C24.388020,150.858795 27.842688,155.301712 31.469463,159.575500 
	C32.270172,160.519058 34.192162,160.511108 35.597828,160.941315 
	C35.506435,159.370438 35.984104,157.410538 35.223141,156.297379 
	C32.248341,151.945724 28.881918,147.861771 25.223089,143.079086 
M104.082344,159.503723 
	C105.630539,159.517578 107.178734,159.531418 108.726929,159.545273 
	C108.232628,158.147873 108.138519,156.305908 107.170631,155.434601 
	C103.989716,152.571167 100.595917,149.905319 97.046967,147.515411 
	C96.088379,146.869888 94.290497,147.470688 92.877853,147.499435 
	C93.203674,148.774078 93.116707,150.499954 93.928886,151.242935 
	C96.965378,154.020721 100.296272,156.476700 104.082344,159.503723 
M70.623207,171.075729 
	C71.931427,171.024796 73.239655,170.973862 74.547874,170.922928 
	C74.243866,169.611801 74.350014,167.927261 73.559563,167.058960 
	C71.107079,164.364975 68.423576,161.845306 65.588913,159.556213 
	C64.690025,158.830322 63.035431,159.040253 61.726669,158.821930 
	C61.814941,160.278168 61.335453,162.235611 62.096607,163.097855 
	C64.500214,165.820694 67.368538,168.133270 70.623207,171.075729 
z"/>
<path fill="#268651" opacity="1.000000" stroke="none" 
	d="
M383.188538,109.082184 
	C377.184448,121.657967 367.498657,128.303497 353.952423,128.810104 
	C345.133911,129.139893 336.291748,129.067551 327.465668,128.894241 
	C320.032013,128.748291 317.062561,125.831032 317.016449,118.501976 
	C316.888519,98.176018 316.892303,77.848442 316.995911,57.522278 
	C317.028351,51.152328 319.662079,47.783440 325.821228,47.654900 
	C337.120697,47.419086 348.548370,47.109528 359.718079,48.488049 
	C372.917999,50.117130 380.950562,59.137470 384.680969,71.479340 
	C388.437775,83.908401 387.965515,96.461945 383.188538,109.082184 
M368.323181,89.436485 
	C368.185455,86.111992 368.357666,82.738724 367.843781,79.473427 
	C366.855682,73.195045 364.631104,67.309319 358.296387,64.623970 
	C350.938965,61.505089 343.126099,62.087353 335.455933,62.383224 
	C335.455933,79.914505 335.455933,96.818062 335.455933,114.017120 
	C339.763519,114.017120 343.742340,114.047508 347.720551,114.011414 
	C359.466248,113.904839 365.045380,109.383698 367.479248,97.833473 
	C367.990509,95.407272 368.019928,92.879539 368.323181,89.436485 
z"/>
<path fill="#268752" opacity="1.000000" stroke="none" 
	d="
M714.538513,114.053215 
	C721.207703,115.104843 723.450317,117.276260 723.195374,122.019119 
	C722.955078,126.489525 719.934937,128.917099 713.984985,128.952560 
	C699.487122,129.038971 684.987793,129.048782 670.490051,128.947693 
	C663.250488,128.897217 660.014526,125.764519 659.975220,118.580307 
	C659.864868,98.416588 659.866821,78.251541 659.968201,58.087738 
	C660.004761,50.808990 662.905640,47.583000 670.255981,47.432125 
	C684.580933,47.138081 698.918030,47.188789 713.245728,47.394909 
	C718.979187,47.477394 722.086914,50.543114 721.959290,54.901081 
	C721.829773,59.323582 718.715820,61.896912 712.794922,61.959324 
	C701.476318,62.078632 690.155457,61.993984 678.486389,61.993984 
	C678.486389,67.629997 678.486389,73.026352 678.486389,79.192429 
	C687.557129,79.192429 696.653198,79.165558 705.748840,79.211006 
	C708.071411,79.222610 710.410461,79.327904 712.710693,79.628975 
	C716.574097,80.134644 718.774536,82.579865 718.795593,86.358009 
	C718.816528,90.105545 716.757812,92.888275 712.843018,93.136986 
	C705.875488,93.579636 698.882385,93.650551 691.898254,93.791283 
	C687.574036,93.878418 683.246704,93.807457 678.529053,93.807457 
	C678.529053,100.434448 678.529053,106.830200 678.529053,114.034775 
	C690.258667,114.034775 702.174255,114.034775 714.538513,114.053215 
z"/>
<path fill="#278752" opacity="1.000000" stroke="none" 
	d="
M232.694458,101.317039 
	C232.539825,86.060593 232.263153,71.248772 232.424011,56.441704 
	C232.496643,49.754513 236.123886,46.048313 241.428452,46.011211 
	C246.972198,45.972435 250.340271,49.818462 250.762360,56.721748 
	C250.843521,58.049004 250.798950,59.384426 250.799240,60.716080 
	C250.801575,71.370399 250.796829,82.024719 250.804382,92.679039 
	C250.805801,94.676384 250.832794,96.674179 250.881668,98.670944 
	C251.235062,113.109459 259.545776,117.359406 273.214569,114.445839 
	C279.608032,113.083038 282.830231,107.609940 282.941620,98.841568 
	C283.108704,85.692207 282.993225,72.539436 283.058411,59.388412 
	C283.069061,57.241230 283.140045,55.037666 283.619781,52.961037 
	C284.692169,48.319122 288.079651,45.845985 292.626221,46.038418 
	C297.104004,46.227943 300.310974,49.116356 301.092438,53.702374 
	C301.231720,54.519833 301.315613,55.358463 301.311890,56.186810 
	C301.244019,71.333359 301.533752,86.493584 300.978851,101.622704 
	C300.339203,119.061371 289.535980,129.356567 271.986450,130.050064 
	C267.673889,130.220474 263.292542,130.312424 259.029053,129.766602 
	C242.394272,127.636894 234.321091,118.895248 232.694458,101.317039 
z"/>
<path fill="#268651" opacity="1.000000" stroke="none" 
	d="
M557.241943,78.732544 
	C562.140503,90.804909 566.958496,102.494072 571.633057,114.240356 
	C574.875305,122.387474 573.632263,127.476997 568.130188,129.656448 
	C562.411743,131.921600 558.633423,129.445053 555.036316,120.961380 
	C553.544067,117.441910 552.190979,113.863457 550.721008,110.177345 
	C540.552063,110.177345 530.421570,110.177345 520.162964,110.177345 
	C518.154602,115.129265 516.331299,120.131096 514.113708,124.951530 
	C511.853577,129.864502 508.223450,131.375916 503.579529,129.834793 
	C499.330170,128.424622 497.098877,124.378403 498.116913,119.399445 
	C498.578918,117.139984 499.479858,114.954163 500.327850,112.792252 
	C507.556244,94.363869 514.652893,75.880379 522.205261,57.585274 
	C523.773987,53.785164 526.409607,49.714684 529.713501,47.496410 
	C535.735779,43.452938 543.699463,46.624523 547.031921,53.922447 
	C550.690613,61.934704 553.768982,70.211937 557.241943,78.732544 
M540.989258,81.523491 
	C539.187683,76.596771 537.386108,71.670059 535.225830,65.762512 
	C531.600342,76.110153 528.255554,85.656685 524.775085,95.590454 
	C532.039795,95.590454 538.726501,95.590454 545.857727,95.590454 
	C544.208984,90.965576 542.664734,86.633698 540.989258,81.523491 
z"/>
<path fill="#258651" opacity="1.000000" stroke="none" 
	d="
M192.717712,49.189194 
	C194.419373,51.863613 196.170090,54.152798 197.225616,56.727039 
	C204.984665,75.650230 212.612320,94.627365 220.255539,113.597908 
	C220.936874,115.289001 221.578568,117.020485 221.990967,118.790909 
	C223.187515,123.927887 221.073517,128.273209 216.766281,129.809250 
	C212.147644,131.456345 208.113556,129.726425 205.741592,124.751801 
	C203.956146,121.007271 202.381027,117.146858 200.972183,113.244209 
	C200.132355,110.917740 199.027771,109.881836 196.359482,109.948029 
	C188.367737,110.146286 180.366272,110.110489 172.372208,109.966423 
	C169.816742,109.920372 168.539948,110.660339 167.708771,113.209099 
	C166.320770,117.465378 164.532303,121.604622 162.703964,125.700066 
	C160.716721,130.151428 156.873322,131.155807 152.678085,129.790207 
	C148.714752,128.500092 146.317673,125.525124 146.879105,121.013977 
	C147.102463,119.219231 147.498917,117.393288 148.153854,115.713036 
	C155.823303,96.037453 163.472885,76.353317 171.306671,56.742928 
	C175.690201,45.769588 183.384659,43.052353 192.717712,49.189194 
M175.184326,95.793579 
	C181.564789,95.793579 187.945251,95.793579 194.862503,95.793579 
	C191.312744,85.790726 187.976379,76.389206 184.640030,66.987686 
	C184.259781,66.909798 183.879532,66.831902 183.499283,66.754013 
	C180.453461,76.350677 177.407654,85.947342 175.184326,95.793579 
z"/>
<path fill="#268752" opacity="1.000000" stroke="none" 
	d="
M628.738037,64.662262 
	C629.991760,60.805984 631.046936,57.300026 632.263123,53.850826 
	C634.519592,47.451195 638.774719,44.763271 643.775696,46.457497 
	C649.118408,48.267494 651.127197,52.983395 648.766602,59.586540 
	C643.839111,73.370239 638.639160,87.056534 633.552856,100.783485 
	C631.125427,107.334778 628.750793,113.906128 626.261963,120.433983 
	C624.098389,126.108833 620.676453,130.226151 613.910706,130.255676 
	C607.430786,130.283951 603.745422,126.635345 601.675903,121.043823 
	C593.998413,100.300339 586.314880,79.557678 578.878601,58.727257 
	C576.760132,52.792828 579.021179,48.208496 583.987671,46.502224 
	C589.004150,44.778770 593.485596,46.853153 595.576965,52.893677 
	C601.547424,70.138641 607.145020,87.512672 612.903381,104.831253 
	C613.253357,105.883797 613.725769,106.895691 614.441589,108.672096 
	C619.336914,93.598373 623.974548,79.318283 628.738037,64.662262 
z"/>
<path fill="#278752" opacity="1.000000" stroke="none" 
	d="
M447.016479,47.280121 
	C459.169342,47.280132 470.825165,47.272015 482.481018,47.289120 
	C484.141357,47.291557 485.817261,47.294373 487.458923,47.506329 
	C493.390320,48.272133 496.038269,50.764229 495.930786,55.334217 
	C495.827087,59.743355 492.870392,62.458084 487.002197,62.779171 
	C481.558960,63.077003 476.086639,62.842686 470.082214,62.842686 
	C470.082214,70.147896 470.086090,76.920425 470.081360,83.692955 
	C470.072876,95.848183 470.155396,108.004570 470.008759,120.158165 
	C469.930725,126.627197 466.768555,130.072723 461.358826,130.206161 
	C455.446625,130.352005 452.026276,126.757896 451.984802,119.846870 
	C451.882843,102.863235 451.939026,85.878662 451.931885,68.894463 
	C451.931122,67.100571 451.931793,65.306679 451.931793,62.903545 
	C446.938080,62.903545 442.324432,62.985382 437.715912,62.867294 
	C435.572815,62.812382 433.371063,62.616444 431.317352,62.046692 
	C427.861359,61.087910 426.079437,58.555012 426.200897,54.972668 
	C426.329163,51.190552 428.371918,48.474098 432.097473,48.008217 
	C436.860657,47.412575 441.708221,47.491722 447.016479,47.280121 
z"/>
<path fill="#248650" opacity="1.000000" stroke="none" 
	d="
M737.853271,127.429832 
	C736.300232,124.599495 734.067505,122.008530 734.031006,119.386971 
	C733.736328,98.237152 733.769836,77.081070 733.899170,55.928089 
	C733.937622,49.639545 737.454773,46.071224 742.797729,46.039284 
	C748.208862,46.006939 751.888794,49.867794 751.941467,56.329453 
	C752.081421,73.485260 752.003052,90.642853 752.011230,107.799736 
	C752.012085,109.587158 752.011353,111.374580 752.011353,113.725716 
	C761.433899,113.725716 770.388428,113.704346 779.342712,113.740288 
	C781.670105,113.749626 784.046570,113.674805 786.312744,114.102943 
	C790.155945,114.829048 792.599426,117.242111 792.690186,121.288315 
	C792.776489,125.140846 790.473267,127.448921 786.916992,128.455460 
	C785.498047,128.857040 783.958130,128.970154 782.472534,128.974747 
	C769.979736,129.013336 757.486023,129.062347 744.994385,128.935486 
	C742.722656,128.912415 740.458801,128.101990 737.853271,127.429832 
z"/>
<path fill="#248650" opacity="1.000000" stroke="none" 
	d="
M399.792114,93.999954 
	C399.802155,81.187492 399.509552,68.862244 400.028961,56.571316 
	C400.163666,53.384266 402.038574,49.222725 404.509430,47.393658 
	C410.210846,43.173164 417.603394,47.868034 417.893341,55.652885 
	C418.202759,63.961006 417.998566,72.288574 418.002838,80.607666 
	C418.009399,93.419411 418.007446,106.231163 417.998505,119.042908 
	C417.995605,123.212852 417.210876,127.079437 413.132385,129.257263 
	C407.060364,132.499557 400.314972,128.677170 400.006409,121.447380 
	C399.623566,112.478203 399.836548,103.483582 399.792114,93.999954 
z"/>
<path fill="#939292" opacity="1.000000" stroke="none" 
	d="
M52.110390,71.504349 
	C49.994026,77.703346 50.857597,83.324623 52.888851,88.962395 
	C59.111202,106.232666 69.666794,120.623802 82.319832,133.642075 
	C84.292534,135.671707 86.500946,137.502060 88.254646,139.700348 
	C88.975006,140.603348 88.779663,142.236847 89.000854,143.538055 
	C87.684593,143.508987 85.850426,144.038742 85.127884,143.369080 
	C67.539780,127.068237 52.864353,108.670296 46.418659,85.085541 
	C42.650364,71.297371 51.127850,57.056656 64.689240,52.629395 
	C78.347588,48.170483 92.872375,54.595310 98.756882,67.763824 
	C100.315720,71.252235 101.866425,74.769066 103.017776,78.400650 
	C103.395615,79.592430 102.500443,81.187813 102.187424,82.598625 
	C100.983223,81.974716 99.252869,81.656822 98.677330,80.667282 
	C97.184563,78.100693 96.070107,75.286476 95.035988,72.485687 
	C91.330330,62.449280 83.253792,55.953194 73.357353,56.299473 
	C63.377399,56.648674 56.007675,61.522705 52.110390,71.504349 
z"/>
<path fill="#939292" opacity="1.000000" stroke="none" 
	d="
M78.390106,26.452137 
	C55.712437,24.558163 35.199261,36.394390 25.630371,56.552906 
	C25.131300,57.604290 24.885710,58.872883 24.137730,59.687355 
	C22.902586,61.032303 21.353649,62.089073 19.936956,63.267296 
	C19.791328,61.355564 18.989523,59.193592 19.607523,57.573078 
	C23.365799,47.718178 29.557463,39.534996 37.930408,33.130676 
	C68.835464,9.491941 112.966721,21.837767 127.393127,58.090637 
	C128.375351,60.558929 129.691940,62.922462 130.391846,65.461823 
	C130.701340,66.584694 129.858429,68.025185 129.538681,69.321487 
	C128.327499,68.789658 126.667610,68.580772 126.002144,67.656174 
	C124.764610,65.936729 123.999550,63.841454 123.223938,61.830830 
	C115.329315,41.365479 100.550720,29.591488 78.390106,26.452137 
z"/>
<path fill="#939292" opacity="1.000000" stroke="none" 
	d="
M73.205276,85.649139 
	C82.971298,108.117699 99.852165,124.032005 118.303574,138.602203 
	C119.217857,139.324173 120.490425,139.806488 121.033859,140.730942 
	C121.746376,141.943069 121.899422,143.484055 122.293114,144.883606 
	C120.810593,144.829803 118.882431,145.367249 117.911171,144.635162 
	C97.228142,129.045486 78.631783,111.598869 68.222687,87.129982 
	C67.253143,84.850861 66.389450,82.446953 66.002953,80.017258 
	C65.331978,75.799255 67.340759,72.776337 71.381897,71.643417 
	C75.434769,70.507195 78.884323,72.111748 80.278709,76.044022 
	C84.871361,88.995659 92.212326,100.133118 101.517853,110.128654 
	C102.392471,111.068123 102.215912,112.986214 102.527405,114.449944 
	C100.959007,114.115891 98.865723,114.314003 97.903717,113.365158 
	C88.662514,104.250351 81.703941,93.589188 76.770187,81.555252 
	C76.031189,79.752762 74.095581,78.440857 72.713531,76.902000 
	C72.569252,79.087204 72.361000,81.271278 72.322037,83.458359 
	C72.311211,84.066490 72.801826,84.683548 73.205276,85.649139 
z"/>
<path fill="#939292" opacity="1.000000" stroke="none" 
	d="
M65.302765,37.018692 
	C37.443462,44.348965 24.620884,68.441986 33.873302,95.378784 
	C34.520908,97.264168 35.587132,99.066605 35.875687,100.994858 
	C36.098274,102.482277 35.405941,104.106621 35.120399,105.670090 
	C33.861782,104.866859 31.990328,104.361610 31.433783,103.217010 
	C15.685049,70.827766 33.420753,40.088837 60.931042,32.749035 
	C76.623840,28.562160 90.936508,31.824896 103.511032,42.062096 
	C104.753410,43.073544 104.849846,45.492577 105.478157,47.258297 
	C103.763443,46.801174 101.701759,46.804115 100.389008,45.814030 
	C90.032867,38.003384 78.625793,34.629673 65.302765,37.018692 
z"/>
<path fill="#939292" opacity="1.000000" stroke="none" 
	d="
M115.336319,109.681503 
	C119.747963,113.514839 123.999519,117.003105 127.990479,120.767654 
	C128.949966,121.672722 129.044647,123.494606 129.537048,124.894852 
	C127.939262,124.826866 125.812256,125.405136 124.822502,124.594635 
	C108.083443,110.887192 92.528229,96.211769 85.135483,74.969009 
	C82.828110,68.338875 76.359909,65.124733 70.015465,66.917961 
	C63.557308,68.743340 59.980968,74.669556 61.140045,81.646080 
	C61.221310,82.135239 61.620216,82.685776 61.486496,83.075798 
	C61.025177,84.421295 60.393158,85.708267 59.826149,87.017525 
	C58.726318,86.043900 57.065033,85.277481 56.616955,84.063332 
	C53.498016,75.612045 58.273342,65.926514 67.033806,62.486061 
	C76.098297,58.926201 85.380058,63.184391 89.773560,72.283592 
	C93.586823,80.181084 97.573639,88.080864 102.397934,95.375008 
	C105.841301,100.581268 110.798775,104.786102 115.336319,109.681503 
z"/>
<path fill="#939292" opacity="1.000000" stroke="none" 
	d="
M46.834133,147.158813 
	C32.912567,130.286285 21.840961,112.186279 16.909365,91.043152 
	C15.437438,84.732582 16.115961,77.892761 16.117846,71.295517 
	C16.118134,70.290184 17.799204,69.285339 18.702875,68.280273 
	C19.479355,69.375275 20.986317,70.512291 20.926119,71.559181 
	C19.142776,102.572411 36.063747,125.362328 54.101704,147.713684 
	C55.762009,149.771011 60.342236,151.852127 57.097912,154.793686 
	C53.836697,157.750565 52.464558,152.792130 50.422234,151.110153 
	C49.153126,150.064957 48.174526,148.667007 46.834133,147.158813 
z"/>
<path fill="#939292" opacity="1.000000" stroke="none" 
	d="
M64.782974,46.444038 
	C62.697815,47.759308 60.775814,48.715290 58.863998,49.691223 
	C44.129402,57.212883 36.920998,73.589325 42.713486,89.408005 
	C46.400036,99.475609 52.053112,108.824463 56.853771,118.480995 
	C57.443218,119.666672 58.444088,120.692169 58.818340,121.924316 
	C59.054371,122.701401 58.739128,124.258545 58.209221,124.516388 
	C57.350105,124.934418 56.096390,124.665253 55.041122,124.492081 
	C54.649529,124.427818 54.286396,123.857506 54.013809,123.448914 
	C45.184685,110.214912 37.107292,96.601036 35.551048,80.315300 
	C34.105484,65.187881 45.819626,48.026196 60.324066,43.488632 
	C62.715794,42.740406 65.162193,42.116341 64.782974,46.444038 
z"/>
<path fill="#929191" opacity="1.000000" stroke="none" 
	d="
M51.619007,14.476191 
	C78.999031,6.463665 102.531685,12.367935 122.553314,32.160690 
	C122.908188,32.511513 123.441711,32.820717 123.563644,33.243912 
	C124.080048,35.036251 124.472252,36.864376 124.909843,38.679424 
	C123.221428,38.083691 121.283630,37.827545 119.902504,36.813351 
	C117.782921,35.256889 116.173637,33.023533 114.127205,31.346626 
	C95.189133,15.828210 74.138359,12.133643 51.028606,20.248783 
	C50.087643,20.579210 49.151020,21.274763 48.234840,21.238138 
	C46.945072,21.186577 45.676334,20.608868 44.398605,20.256144 
	C44.985218,19.057274 45.274574,17.451469 46.228123,16.754929 
	C47.657532,15.710791 49.553211,15.304979 51.619007,14.476191 
z"/>
<path fill="#949393" opacity="1.000000" stroke="none" 
	d="
M121.182205,86.783783 
	C123.980774,89.658363 126.699455,92.140198 129.013092,94.954964 
	C129.818039,95.934265 129.621323,97.736900 129.882080,99.163506 
	C128.422638,99.002388 126.456985,99.394836 125.581917,98.594658 
	C116.669189,90.444664 108.860748,81.356552 104.734604,69.800316 
	C99.752541,55.846867 90.072289,48.131618 75.469337,46.192062 
	C73.885117,45.981644 72.471748,44.484982 70.979134,43.584938 
	C72.708038,42.769978 74.530243,41.097015 76.151360,41.273293 
	C91.701424,42.964207 102.287262,51.264927 108.829391,65.517975 
	C112.186432,72.831795 116.862930,79.539978 121.182205,86.783783 
z"/>
<path fill="#939292" opacity="1.000000" stroke="none" 
	d="
M103.623932,146.367508 
	C88.446388,133.755142 74.709320,120.321121 65.006020,103.287552 
	C63.691521,100.980026 62.292973,98.672836 61.392479,96.198395 
	C60.983238,95.073853 61.694866,93.541397 61.898056,92.193977 
	C63.236984,92.785576 65.307877,93.014389 65.807312,94.022064 
	C76.974037,116.552338 94.783722,133.062881 114.229668,148.173279 
	C115.402618,149.084717 115.564445,151.297409 116.196762,152.904602 
	C114.452545,152.644699 112.438927,152.847748 111.022964,152.023743 
	C108.462891,150.533981 106.259659,148.430984 103.623932,146.367508 
z"/>
<path fill="#929191" opacity="1.000000" stroke="none" 
	d="
M65.696045,145.297760 
	C72.749718,151.903763 79.626610,158.182892 86.289215,164.681732 
	C87.398193,165.763458 87.573959,167.801910 88.180969,169.398270 
	C86.567253,169.177658 84.481224,169.531433 83.410240,168.650787 
	C65.699295,154.087479 49.870155,137.826767 38.473473,117.682091 
	C37.818806,116.524902 36.875065,115.388962 36.685658,114.148491 
	C36.470699,112.740730 36.953999,111.226349 37.133736,109.758331 
	C38.451344,110.418015 40.282707,110.730492 41.001888,111.794617 
	C45.185596,117.985016 48.828278,124.554626 53.204708,130.597061 
	C56.896729,135.694550 61.337902,140.249435 65.696045,145.297760 
z"/>
<path fill="#939292" opacity="1.000000" stroke="none" 
	d="
M52.280842,167.688171 
	C38.238953,153.974884 26.555618,138.927277 17.840961,121.663933 
	C17.316257,120.624519 16.430311,119.599480 16.374001,118.532837 
	C16.298508,117.102882 16.868649,115.638847 17.161592,114.189445 
	C18.441460,114.941849 20.220154,115.380783 20.921457,116.496765 
	C26.047359,124.653564 30.430059,133.330109 36.081795,141.089096 
	C41.836212,148.989029 48.816380,155.991119 55.137314,163.489624 
	C55.948418,164.451828 56.023136,166.034775 56.438988,167.330154 
	C55.139217,167.527206 53.839447,167.724274 52.280842,167.688171 
z"/>
<path fill="#939292" opacity="1.000000" stroke="none" 
	d="
M88.802246,160.205078 
	C80.418518,152.140045 72.287308,144.327789 64.218170,136.451935 
	C62.922207,135.187012 61.632648,133.768234 60.864044,132.168823 
	C60.443146,131.292969 60.803032,129.653061 61.427952,128.821411 
	C61.758865,128.381042 63.788898,128.532776 64.396935,129.108673 
	C66.556358,131.153976 68.277634,133.663467 70.446053,135.697388 
	C79.272568,143.976425 88.263206,152.081436 97.028534,160.423767 
	C98.279892,161.614731 98.626526,163.756302 99.391884,165.457916 
	C97.502609,165.033386 95.458168,164.925461 93.767044,164.096634 
	C92.023949,163.242325 90.624924,161.685959 88.802246,160.205078 
z"/>
<path fill="#278752" opacity="1.000000" stroke="none" 
	d="
M535.554932,26.885826 
	C539.911621,26.853456 543.827515,26.853456 547.486511,26.853456 
	C547.841064,27.846430 548.138062,28.275826 548.031128,28.436569 
	C543.498718,35.250381 538.284180,41.362667 530.010437,43.623432 
	C528.325195,44.083920 526.276001,43.212498 524.394592,42.955067 
	C524.713257,41.266346 524.605164,39.323826 525.430237,37.936253 
	C527.953369,33.693161 528.889099,27.931391 535.554932,26.885826 
z"/>
<path fill="#939292" opacity="1.000000" stroke="none" 
	d="
M118.860947,64.087975 
	C122.416534,69.898239 125.952003,75.290756 129.248581,80.825546 
	C130.038239,82.151329 130.032928,83.950600 130.393234,85.532104 
	C128.831711,85.133141 126.551842,85.252335 125.828156,84.249039 
	C121.870132,78.761841 118.106400,73.110374 114.655167,67.290466 
	C112.466568,63.599758 110.809242,59.569813 109.189651,55.579971 
	C108.673920,54.309475 109.045876,52.678631 109.011642,51.212677 
	C110.513519,51.807102 112.699867,51.973446 113.389381,53.075935 
	C115.487534,56.430752 117.007919,60.146912 118.860947,64.087975 
z"/>
<path fill="#959494" opacity="1.000000" stroke="none" 
	d="
M114.102295,93.869568 
	C119.210335,98.886383 124.173790,103.552284 128.867737,108.475151 
	C129.833740,109.488266 129.793640,111.460693 130.217255,112.990959 
	C128.651627,112.714127 126.553696,112.988060 125.605850,112.071999 
	C118.934105,105.623985 112.386795,99.034523 106.100166,92.213356 
	C105.064995,91.090157 105.505577,88.606842 105.264130,86.752113 
	C106.864525,87.501534 108.680786,87.986519 110.008293,89.070213 
	C111.520462,90.304665 112.596611,92.073227 114.102295,93.869568 
z"/>
<path fill="#949393" opacity="1.000000" stroke="none" 
	d="
M120.181938,133.825439 
	C115.628777,129.959351 111.254250,126.421921 107.166756,122.579185 
	C106.306221,121.770164 106.499237,119.840492 106.206795,118.427193 
	C107.640114,118.598785 109.463463,118.268066 110.440788,119.026924 
	C115.266342,122.773781 119.983147,126.684113 124.473686,130.823822 
	C125.712784,131.966110 126.042191,134.095200 126.788994,135.771500 
	C125.070320,135.502579 123.341988,135.280838 121.639664,134.932098 
	C121.205055,134.843079 120.852837,134.351837 120.181938,133.825439 
z"/>
<path fill="#949393" opacity="1.000000" stroke="none" 
	d="
M26.143719,30.142963 
	C29.473673,27.379557 32.431057,24.687918 35.704281,22.460398 
	C36.701416,21.781818 38.568504,22.381594 40.037167,22.395899 
	C39.600147,23.766447 39.566761,25.549982 38.658154,26.438007 
	C34.055058,30.936817 29.301750,35.293213 24.410025,39.476078 
	C23.410221,40.331001 21.592064,40.228878 20.151138,40.567917 
	C20.262203,39.123207 19.882486,37.347961 20.586525,36.302624 
	C22.051142,34.127998 24.089788,32.339989 26.143719,30.142963 
z"/>
<path fill="#949393" opacity="1.000000" stroke="none" 
	d="
M25.442074,143.378708 
	C28.881918,147.861771 32.248341,151.945724 35.223141,156.297379 
	C35.984104,157.410538 35.506435,159.370438 35.597828,160.941315 
	C34.192162,160.511108 32.270172,160.519058 31.469463,159.575500 
	C27.842688,155.301712 24.388020,150.858795 21.209154,146.244095 
	C20.405750,145.077820 20.846777,143.054291 20.715954,141.424683 
	C22.218334,141.976151 23.720713,142.527618 25.442074,143.378708 
z"/>
<path fill="#959494" opacity="1.000000" stroke="none" 
	d="
M103.799545,159.278534 
	C100.296272,156.476700 96.965378,154.020721 93.928886,151.242935 
	C93.116707,150.499954 93.203674,148.774078 92.877853,147.499435 
	C94.290497,147.470688 96.088379,146.869888 97.046967,147.515411 
	C100.595917,149.905319 103.989716,152.571167 107.170631,155.434601 
	C108.138519,156.305908 108.232628,158.147873 108.726929,159.545273 
	C107.178734,159.531418 105.630539,159.517578 103.799545,159.278534 
z"/>
<path fill="#959494" opacity="1.000000" stroke="none" 
	d="
M70.340134,170.840149 
	C67.368538,168.133270 64.500214,165.820694 62.096607,163.097855 
	C61.335453,162.235611 61.814941,160.278168 61.726669,158.821930 
	C63.035431,159.040253 64.690025,158.830322 65.588913,159.556213 
	C68.423576,161.845306 71.107079,164.364975 73.559563,167.058960 
	C74.350014,167.927261 74.243866,169.611801 74.547874,170.922928 
	C73.239655,170.973862 71.931427,171.024796 70.340134,170.840149 
z"/>
<path fill="#FCFDFC" opacity="1.000000" stroke="none" 
	d="
M368.297302,89.917542 
	C368.019928,92.879539 367.990509,95.407272 367.479248,97.833473 
	C365.045380,109.383698 359.466248,113.904839 347.720551,114.011414 
	C343.742340,114.047508 339.763519,114.017120 335.455933,114.017120 
	C335.455933,96.818062 335.455933,79.914505 335.455933,62.383224 
	C343.126099,62.087353 350.938965,61.505089 358.296387,64.623970 
	C364.631104,67.309319 366.855682,73.195045 367.843781,79.473427 
	C368.357666,82.738724 368.185455,86.111992 368.297302,89.917542 
z"/>
<path fill="#F7FAF8" opacity="1.000000" stroke="none" 
	d="
M541.054871,81.912659 
	C542.664734,86.633698 544.208984,90.965576 545.857727,95.590454 
	C538.726501,95.590454 532.039795,95.590454 524.775085,95.590454 
	C528.255554,85.656685 531.600342,76.110153 535.225830,65.762512 
	C537.386108,71.670059 539.187683,76.596771 541.054871,81.912659 
z"/>
<path fill="#F7FBF9" opacity="1.000000" stroke="none" 
	d="
M174.773071,95.668793 
	C177.407654,85.947342 180.453461,76.350677 183.499283,66.754013 
	C183.879532,66.831902 184.259781,66.909798 184.640030,66.987686 
	C187.976379,76.389206 191.312744,85.790726 194.862503,95.793579 
	C187.945251,95.793579 181.564789,95.793579 174.773071,95.668793 
z"/>
</svg>