<svg version="1.1" id="Layer_1" xmlns="http://www.w3.org/2000/svg" xmlns:xlink="http://www.w3.org/1999/xlink" x="0px" y="0px"
	 width="100%" viewBox="0 0 320 432" enable-background="new 0 0 320 432" xml:space="preserve">
<path fill="#000000" opacity="1.000000" stroke="none" 
	d="
M278.727570,196.301819 
	C287.056824,207.214294 296.415405,216.702118 305.907898,226.067429 
	C306.738220,226.886627 307.588989,227.685867 308.401367,228.522446 
	C312.242065,232.477463 312.765808,236.334579 309.911560,239.534866 
	C307.209717,242.564255 302.124725,242.376099 298.343964,238.648178 
	C291.465393,231.865692 284.593170,225.053680 278.104706,217.903366 
	C263.066620,201.331299 251.353363,182.737442 243.762589,161.526611 
	C233.927994,134.045837 214.697250,116.271873 186.698242,107.991432 
	C184.945267,107.473007 183.226822,106.865181 180.647552,107.888115 
	C186.285370,113.405991 189.203079,120.452919 197.063873,124.045837 
	C215.244247,132.355515 227.014603,146.893051 233.266373,165.873322 
	C235.565063,172.852097 238.620224,179.508179 241.916565,186.057739 
	C244.503235,191.197281 243.728668,195.255905 239.717422,197.233276 
	C235.644318,199.241135 231.974197,197.668442 229.285950,192.537903 
	C225.883560,186.044373 222.816315,179.395065 220.537933,172.405304 
	C217.448013,162.925842 212.794739,154.359039 205.613297,147.321106 
	C204.253830,145.988815 203.125229,144.135406 200.694992,144.299423 
	C199.955856,146.507935 201.314590,148.200958 202.022934,149.966599 
	C209.215973,167.896408 216.481476,185.797104 223.704529,203.714905 
	C228.773239,216.288498 237.119064,226.726944 245.819229,236.814392 
	C263.821106,257.686707 283.843323,276.490692 305.506592,293.540131 
	C306.290863,294.157379 307.102814,294.760651 307.787750,295.479248 
	C310.812378,298.652344 311.182312,302.994537 308.463928,305.836731 
	C305.412689,309.026947 301.944885,308.836578 298.581299,306.310455 
	C289.914215,299.801361 281.710846,292.721954 273.711700,285.424652 
	C266.575439,278.914520 259.709076,272.108917 252.700714,265.457825 
	C251.651459,264.462036 250.822693,263.058716 248.252914,263.101227 
	C249.537140,267.282562 251.034210,271.196625 251.908615,275.245178 
	C253.019913,280.390656 254.596527,284.270782 259.272308,288.116150 
	C272.641754,299.111267 285.542755,310.685516 299.385468,321.130676 
	C303.879913,324.522095 304.927582,328.792755 302.363220,332.253479 
	C299.615021,335.962219 295.762695,336.188202 290.982849,332.665100 
	C277.558167,322.770264 264.673309,312.186829 252.556366,300.747101 
	C248.743805,297.147675 245.865631,295.900482 241.902863,299.860718 
	C241.105606,300.657501 239.994217,301.139954 239.077881,301.734711 
	C238.892227,304.130310 240.719574,305.060944 241.975616,306.258087 
	C255.379272,319.033020 269.601562,330.833160 284.508545,341.813019 
	C286.251526,343.096832 288.047760,344.336060 289.638000,345.793732 
	C292.835510,348.724762 293.257568,352.255157 290.588928,355.594910 
	C288.079254,358.735718 284.547363,359.319153 281.223572,356.941681 
	C274.452271,352.098358 267.685791,347.216003 261.242828,341.951385 
	C230.305115,316.671722 201.471390,289.322205 178.367599,256.443939 
	C174.714325,251.245087 169.704971,254.029312 165.189346,253.408585 
	C164.277451,256.745422 166.221817,258.596039 167.567871,260.573700 
	C186.168060,287.901276 209.034180,311.362976 233.586502,333.289948 
	C246.146637,344.507050 259.301117,354.986572 272.839294,364.995911 
	C276.878662,367.982361 277.835022,372.501709 275.343536,375.795624 
	C273.014923,378.874298 268.546783,379.350983 264.587769,376.570160 
	C249.020401,365.635315 234.401489,353.505371 220.388535,340.664795 
	C196.878952,319.122101 174.634827,296.408356 156.597366,269.925323 
	C153.598557,265.522369 150.877808,260.931000 147.969055,256.465485 
	C146.114639,253.618546 138.545944,251.974258 135.835480,253.828949 
	C133.492813,255.431976 135.189392,257.132996 136.020676,258.574890 
	C140.934814,267.098846 146.411667,275.263428 152.176941,283.231079 
	C165.405289,301.512787 180.651962,318.022491 196.709824,333.816162 
	C199.323502,336.386810 201.952240,338.943451 204.514893,341.564392 
	C208.525162,345.665771 208.986618,349.324432 205.972748,352.483032 
	C202.937485,355.664062 198.697067,355.285919 194.504929,351.462372 
	C185.756927,343.483704 177.598007,334.918060 169.455597,326.335449 
	C153.115234,309.111755 138.712418,290.400757 126.250702,270.190247 
	C125.339592,268.712585 124.771439,266.432739 122.480042,266.755798 
	C120.600090,267.020813 120.298042,269.085236 119.593163,270.553528 
	C117.666359,274.567200 117.498817,278.306885 120.463608,282.130066 
	C123.415787,285.936981 125.938873,290.087311 128.514984,294.172302 
	C131.195419,298.422729 130.702240,302.494720 127.413040,304.856354 
	C123.824394,307.432983 120.046448,306.448425 116.681580,302.189423 
	C114.747589,299.741577 113.658333,296.592896 110.694672,294.821045 
	C107.996010,295.658386 106.650879,298.166168 104.660095,299.821259 
	C102.202995,301.864014 104.416130,303.856232 105.493973,305.482391 
	C112.312576,315.769958 119.803528,325.567566 127.826607,334.940277 
	C149.661316,360.448090 173.752563,383.653015 199.612167,405.048340 
	C202.005219,407.028259 204.895859,408.739227 205.379471,412.268524 
	C205.759750,415.043640 205.544785,417.758728 202.833008,419.311768 
	C199.646896,421.136475 196.400772,420.931885 193.537338,418.539032 
	C186.123779,412.343781 178.569443,406.297699 171.426346,399.801605 
	C147.852722,378.363129 125.331017,355.894135 105.929146,330.516449 
	C100.166756,322.979218 94.830956,315.111969 89.409050,307.319855 
	C86.560394,303.225891 84.099106,298.884674 80.029190,295.739166 
	C78.631989,294.659302 77.360153,293.041443 76.738495,291.401215 
	C74.460442,285.390564 72.613426,279.245697 70.026909,273.312378 
	C68.190720,269.100281 70.690315,265.731262 75.547264,264.587219 
	C78.295723,263.939819 79.740219,262.406860 80.979507,260.020630 
	C84.562462,253.121582 85.809120,246.800995 81.966362,239.001587 
	C76.170906,227.238998 72.118996,214.671951 70.182549,201.513229 
	C64.046486,159.817032 85.683945,117.097046 126.903412,99.105232 
	C129.797806,97.841866 132.717392,96.572853 135.733459,95.666550 
	C140.180176,94.330345 144.000168,96.142578 145.144775,99.795227 
	C146.449371,103.958382 144.641510,107.647957 140.116165,109.249908 
	C127.180794,113.828972 115.474754,120.470825 106.263405,130.707214 
	C84.720612,154.647278 78.216331,182.222031 87.513336,213.209641 
	C88.818748,217.560669 89.528015,222.308105 93.378860,226.639252 
	C96.493683,220.891632 100.027290,216.071747 97.983856,209.343018 
	C91.568787,188.219086 94.205406,168.181732 105.703506,149.362823 
	C111.917809,139.191895 120.436409,131.336914 130.837555,125.585495 
	C133.578644,124.069778 135.610764,122.217285 136.978119,119.363083 
	C140.776093,111.435287 146.822525,106.009613 155.465210,103.858910 
	C157.810623,103.275269 158.673645,102.191940 158.787888,99.752899 
	C159.118866,92.686935 161.261475,90.636856 168.429703,90.912025 
	C205.766800,92.345284 242.468582,115.151497 256.768219,155.740509 
	C261.919159,170.361282 269.341858,183.628906 278.727570,196.301819 
M211.775040,183.601364 
	C206.967377,171.712219 202.266037,159.778610 197.318512,147.947952 
	C193.339600,138.433487 190.404465,128.471695 185.179688,119.485992 
	C175.317093,102.524010 152.496841,101.834816 141.869827,118.297073 
	C139.716599,121.632629 137.967438,125.298744 136.504120,128.999176 
	C122.480095,164.463150 108.528969,199.956055 94.620430,235.465546 
	C89.337761,248.952591 83.911667,262.396454 79.133430,276.063629 
	C75.846428,285.465454 80.080902,293.828827 88.834862,297.284729 
	C97.205048,300.589111 103.793701,297.679596 108.532600,288.198273 
	C113.755920,277.747742 117.424583,266.644775 121.293701,255.659943 
	C122.858292,251.217911 125.194557,249.846130 129.685745,249.870316 
	C152.012604,249.990631 174.342041,249.949585 196.667725,249.704895 
	C201.333801,249.653763 203.521652,251.557205 205.006516,255.740234 
	C209.070862,267.190033 213.024002,278.724365 218.837158,289.439178 
	C223.384186,297.820221 231.007172,300.547333 238.997070,297.190460 
	C246.976181,293.838074 250.986740,285.757111 248.780762,277.195007 
	C247.994064,274.141602 247.062103,271.099426 245.887497,268.176270 
	C234.648621,240.206848 223.343491,212.264038 211.775040,183.601364 
M119.282547,162.869400 
	C120.281799,159.692154 122.158195,156.740036 122.222855,152.877594 
	C115.227646,157.858383 108.223236,175.693710 110.503792,183.768539 
	C114.245590,176.823639 116.396210,170.104614 119.282547,162.869400 
M197.798126,253.791809 
	C195.864746,253.893524 195.453323,254.932465 196.387344,256.436890 
	C198.277802,259.481873 200.313492,262.430817 204.203873,265.797516 
	C202.552414,260.576996 202.529312,256.285095 197.798126,253.791809 
z"/>
<path fill="#000000" opacity="1.000000" stroke="none" 
	d="
M300.572937,127.518158 
	C304.713623,136.473007 307.104034,145.728317 311.667297,154.127289 
	C313.625183,157.730896 312.658966,161.366547 308.908691,163.643173 
	C305.561615,165.675064 301.527161,164.393616 299.151337,160.420837 
	C296.673370,156.277313 294.624603,151.901443 292.994232,147.334503 
	C274.931946,96.739899 239.491821,65.504982 186.806183,55.998878 
	C148.378922,49.065426 113.089989,59.056915 82.330727,83.468994 
	C62.826817,98.948273 48.915417,118.583488 40.335888,141.976654 
	C39.934879,143.070053 39.569595,144.196198 39.008484,145.207687 
	C37.061092,148.718201 34.093124,150.268570 30.227314,148.859283 
	C26.336218,147.440811 24.991346,144.247803 25.943405,140.389618 
	C27.303247,134.878937 29.522291,129.628738 32.051750,124.571022 
	C55.275028,78.135399 92.224678,49.275959 143.708206,41.896049 
	C203.766068,33.287056 251.452499,55.860710 287.378113,104.186882 
	C292.660736,111.292908 296.822205,119.083305 300.572937,127.518158 
z"/>
<path fill="#000000" opacity="1.000000" stroke="none" 
	d="
M171.892334,65.684540 
	C200.460114,67.381981 225.102936,77.504623 246.306595,95.966042 
	C250.679428,99.773361 251.283875,103.831093 248.295074,107.271233 
	C245.498627,110.489983 241.141357,110.405861 236.814590,106.635674 
	C220.272079,92.221130 201.157471,83.439789 179.442719,80.545700 
	C139.304764,75.196213 96.935539,93.622383 74.401558,130.382950 
	C54.140614,163.435440 53.280376,197.888077 67.321701,233.329514 
	C69.100349,237.818985 71.080421,242.234146 72.705086,246.777466 
	C74.177704,250.895599 72.346756,255.037308 68.615952,256.213989 
	C64.516289,257.506989 61.272648,256.088531 59.578846,252.151382 
	C50.383907,230.778397 42.719929,208.998962 43.651997,185.234024 
	C45.377636,141.235428 64.694633,107.108902 101.864021,83.504189 
	C122.990120,70.087898 146.421371,64.583115 171.892334,65.684540 
z"/>
<path fill="#000000" opacity="1.000000" stroke="none" 
	d="
M18.479095,179.538300 
	C18.769518,174.926041 18.581610,170.746841 19.517857,166.646545 
	C20.543055,162.156677 23.672310,159.443756 27.392839,159.899841 
	C31.282429,160.376648 33.728420,163.565811 33.473831,168.210083 
	C33.209965,173.023499 32.574955,177.817429 32.340534,182.631470 
	C31.128428,207.523453 38.178421,230.649048 47.742004,253.180420 
	C66.021873,296.246948 91.579308,334.557678 123.554810,368.643768 
	C124.465477,369.614532 125.418205,370.562897 126.205269,371.629486 
	C128.748688,375.076141 128.789597,378.460785 125.442291,381.387756 
	C122.105255,384.305695 118.584297,383.897034 115.613197,380.928375 
	C111.612000,376.930450 107.819328,372.713989 104.079018,368.466400 
	C71.285889,331.225647 45.663719,289.668152 28.450117,243.016968 
	C22.060913,225.701355 18.318424,207.903091 17.841312,189.451538 
	C17.760025,186.307907 18.209055,183.150589 18.479095,179.538300 
z"/>
<path fill="#000000" opacity="1.000000" stroke="none" 
	d="
M124.832397,33.950127 
	C117.917236,35.532787 111.708427,37.939598 105.518044,40.399929 
	C104.125809,40.953262 102.780289,41.653381 101.351944,42.081245 
	C96.464500,43.545280 92.755119,42.119850 91.262108,38.307030 
	C89.796867,34.565140 91.626320,30.781630 96.222969,28.805702 
	C109.574974,23.066153 123.402679,18.799042 137.789566,16.687847 
	C191.301559,8.835259 238.754639,22.348000 279.839569,57.603806 
	C285.511230,62.470764 290.540070,68.088448 295.839325,73.385742 
	C296.540771,74.086937 297.121490,74.921562 297.688446,75.742516 
	C300.567322,79.910919 300.376709,83.981773 297.017731,86.397659 
	C293.174072,89.162148 289.781494,87.969292 286.855774,84.764496 
	C280.221802,77.497734 273.401825,70.421425 265.699127,64.266663 
	C239.891144,43.645187 210.726318,31.691723 177.606964,29.041103 
	C159.757431,27.612564 142.444397,29.610737 124.832397,33.950127 
z"/>
<path fill="#000000" opacity="1.000000" stroke="none" 
	d="
M51.436043,342.508392 
	C39.772392,325.384125 29.521980,307.854492 20.549932,289.575653 
	C17.308445,282.971741 17.721395,278.527130 21.932177,276.422668 
	C26.356335,274.211578 29.980930,276.299866 33.259083,282.998260 
	C54.420082,326.237366 82.592514,364.393066 116.753258,398.211487 
	C118.410637,399.852234 120.082954,401.489319 121.609261,403.248749 
	C125.058922,407.225342 125.153587,411.422333 121.971756,414.325409 
	C118.865608,417.159485 115.004250,416.895233 111.326767,413.249512 
	C99.726021,401.749023 88.427361,389.957123 77.934303,377.424866 
	C68.622887,366.303833 59.771343,354.826813 51.436043,342.508392 
z"/>
<path fill="#000000" opacity="1.000000" stroke="none" 
	d="
M136.850372,328.088928 
	C135.874313,326.917786 135.094055,326.050049 134.365631,325.140808 
	C130.975647,320.909393 130.854675,316.816223 134.020477,314.083099 
	C137.305786,311.246826 142.018768,312.009644 145.353043,316.058533 
	C155.315903,328.156738 166.173721,339.414673 177.266251,350.468048 
	C193.448822,366.593536 210.728195,381.456360 228.652969,395.590820 
	C229.175980,396.003265 229.715530,396.395569 230.226501,396.822266 
	C234.610474,400.483124 235.442108,404.472137 232.570038,408.027649 
	C229.958359,411.260834 225.618744,411.490295 221.490189,408.192719 
	C213.036438,401.440491 204.581406,394.676208 196.390213,387.611572 
	C175.178055,369.316864 155.267014,349.697845 136.850372,328.088928 
z"/>
<path fill="#000000" opacity="1.000000" stroke="none" 
	d="
M270.746948,125.353569 
	C275.405975,133.296631 278.809143,141.377365 281.807007,149.701538 
	C287.463196,165.407227 296.610687,179.023895 307.839142,191.297928 
	C309.404572,193.009140 311.054596,194.721542 312.230621,196.692810 
	C314.211426,200.013000 313.456573,203.199951 310.558777,205.618607 
	C307.790009,207.929581 304.757568,207.811249 301.855743,205.650360 
	C301.325287,205.255325 300.840698,204.787537 300.383087,204.307465 
	C286.346252,189.581802 274.936951,173.183472 268.216522,153.795761 
	C265.154266,144.961456 261.186951,136.562424 256.063080,128.724564 
	C255.335587,127.611702 254.545319,126.518845 253.982330,125.323380 
	C252.261978,121.670280 252.905060,118.361702 256.233307,116.077888 
	C259.630951,113.746468 262.982056,114.477058 265.523804,117.617233 
	C267.397614,119.932175 268.888031,122.557396 270.746948,125.353569 
z"/>
<path fill="#000000" opacity="1.000000" stroke="none" 
	d="
M246.235077,206.927826 
	C250.722458,204.645828 253.930161,205.993073 256.571381,209.460968 
	C271.771729,229.418701 289.722168,246.704575 308.654572,263.033936 
	C310.713593,264.809845 312.645752,266.713928 312.731232,269.613892 
	C312.816132,272.493744 311.511658,274.760712 308.923828,276.143494 
	C305.664520,277.885040 302.784607,276.902313 300.195251,274.689087 
	C280.552795,257.899811 262.055054,239.981750 246.225525,219.472504 
	C242.062454,214.078690 242.127121,211.854462 246.235077,206.927826 
z"/>
<path fill="#000000" opacity="1.000000" stroke="none" 
	d="
M29.899857,80.166748 
	C41.263489,65.580704 54.383202,53.437992 69.515770,43.475452 
	C70.348915,42.926945 71.167931,42.347702 72.042503,41.872982 
	C76.076660,39.683224 80.003159,40.452175 82.077469,43.921051 
	C84.389084,47.786785 83.236580,51.239006 79.838875,53.501991 
	C64.758957,63.545742 51.622463,75.631088 40.324455,89.787621 
	C37.911526,92.811050 34.576229,93.816208 31.021320,91.464325 
	C27.437199,89.093117 27.055601,85.431198 29.899857,80.166748 
z"/>
<path fill="#000000" opacity="1.000000" stroke="none" 
	d="
M30.955685,356.775543 
	C27.808481,351.112579 28.220829,347.573059 32.067574,345.147614 
	C35.676979,342.871826 39.356953,343.932861 42.600266,348.531921 
	C51.428192,361.050110 60.698608,373.218872 70.572784,384.933563 
	C74.248077,389.293915 74.126724,393.411804 70.548279,396.292419 
	C67.036705,399.119080 63.402214,398.609009 59.712593,394.298126 
	C49.536621,382.408722 39.901192,370.093323 30.955685,356.775543 
z"/>
<path fill="#000000" opacity="1.000000" stroke="none" 
	d="
M216.586212,371.347168 
	C212.784332,367.011108 212.444397,363.090240 215.360046,360.113342 
	C218.299271,357.112366 221.601456,357.201263 225.986725,360.644318 
	C235.264297,367.928558 244.505920,375.259277 253.707962,382.638672 
	C257.640869,385.792603 258.474396,390.299133 255.922913,393.521362 
	C253.216599,396.939087 249.238770,397.111542 244.940536,393.933167 
	C235.316879,386.816772 225.907059,379.429993 216.586212,371.347168 
z"/>
<path fill="#000000" opacity="1.000000" stroke="none" 
	d="
M155.953568,420.159424 
	C149.212067,413.955627 142.693848,408.043549 136.317261,401.982483 
	C132.156464,398.027557 131.603745,393.845795 134.500412,390.630768 
	C137.571136,387.222565 141.902466,387.545288 146.246826,391.554352 
	C152.712250,397.520813 159.093155,403.580414 165.627136,409.470459 
	C171.108536,414.411591 172.361572,418.447784 169.228699,422.140778 
	C166.263367,425.636322 161.445206,424.986237 155.953568,420.159424 
z"/>
<path fill="#000000" opacity="1.000000" stroke="none" 
	d="
M135.304062,216.360352 
	C144.092560,191.866470 152.740829,167.735138 161.298660,143.856140 
	C164.644760,144.252441 164.940048,146.048630 165.493942,147.561111 
	C174.183746,171.288971 182.885651,195.012482 191.509766,218.764221 
	C193.493713,224.228165 192.778305,225.147003 186.841019,225.150757 
	C171.533691,225.160461 156.226288,225.112732 140.918976,225.064911 
	C132.293625,225.037964 132.293686,225.017441 135.304062,216.360352 
M183.685989,220.497574 
	C184.844910,219.162750 184.654892,217.757904 183.907227,216.320709 
	C179.055923,206.995255 175.102692,197.287476 171.447403,187.441666 
	C170.198227,184.076904 167.856613,181.270157 163.909958,182.694580 
	C160.098068,184.070358 159.838943,187.421448 160.930237,191.069122 
	C163.470627,199.560410 167.114044,207.593567 170.927094,215.550613 
	C174.211426,222.404358 175.235443,222.768936 183.685989,220.497574 
M155.798660,218.490204 
	C153.652008,211.481476 150.857819,204.770508 147.226227,198.048294 
	C144.867111,200.887177 139.340363,214.173126 139.364716,216.357010 
	C139.370178,216.846863 139.352478,217.390808 139.548477,217.816345 
	C141.553253,222.169128 152.175903,223.104507 155.798660,218.490204 
M160.775742,157.678543 
	C159.186554,160.994293 156.979385,164.146347 157.657883,168.006104 
	C159.689529,169.005112 161.207535,167.875839 162.798889,167.690491 
	C164.944611,167.440582 168.395279,167.800308 167.298752,164.277695 
	C166.404022,161.403412 167.266907,156.107742 160.775742,157.678543 
z"/>
</svg>